<?xml version="1.0" encoding="iso-8859-1"?>
<!-- Uploaded to: SVG Repo, www.svgrepo.com, Generator: SVG Repo Mixer Tools -->
<svg fill="#ffffff" version="1.1" id="Layer_1" xmlns="http://www.w3.org/2000/svg" xmlns:xlink="http://www.w3.org/1999/xlink" 
	 viewBox="0 0 512 512" xml:space="preserve">
<g>
	<g>
		<path d="M272.473,242.941c0,9.083-7.39,16.473-16.473,16.473c-9.083,0-16.473-7.39-16.473-16.473h-32.946
			c0,27.25,22.17,49.419,49.419,49.419s49.419-22.17,49.419-49.419H272.473z"/>
	</g>
</g>
<g>
	<g>
		<rect x="206.585" y="193.527" width="32.946" height="32.946"/>
	</g>
</g>
<g>
	<g>
		<rect x="272.478" y="193.527" width="32.946" height="32.946"/>
	</g>
</g>
<g>
	<g>
		<path d="M426.223,170.225V72.716h-97.507L256,0l-72.716,72.716H85.777v97.507l-65.893,65.893V512h472.23V236.115L426.223,170.225z
			 M426.223,216.818l32.946,32.945v8.317l-32.946,32.946V216.818z M256,46.593l26.123,26.123h-52.246L256,46.593z M118.724,105.662
			h274.553v218.31l-59.617,59.617l-45.851-29.803c48.163-13.842,83.505-58.293,83.505-110.849
			c0-63.584-51.729-115.312-115.312-115.312s-115.312,51.729-115.312,115.312c0,52.555,35.341,97.007,83.505,110.849l-45.851,29.803
			l-59.617-59.617V105.662z M256,325.304c-45.416,0-82.366-36.949-82.366-82.366s36.949-82.366,82.366-82.366
			s82.366,36.949,82.366,82.366S301.417,325.304,256,325.304z M52.831,249.762l32.946-32.946v74.21l-32.946-32.946V249.762z
			 M52.831,304.672l97.273,97.273l-97.273,63.227V304.672z M91.927,479.053L256,372.406l164.073,106.646H91.927z M459.17,465.172
			l-97.273-63.227l97.273-97.273V465.172z"/>
	</g>
</g>
</svg>