<?xml version="1.0" encoding="UTF-8"?>
<svg id="Capa_2" data-name="Capa 2" xmlns="http://www.w3.org/2000/svg" viewBox="0 0 634.79 634.88">
  <defs>
    <style>
      .cls-1 {
        fill: #efb810;
        stroke-width: 0px;
      }
    </style>
  </defs>
  <g id="Layer_1" data-name="Layer 1">
    <g>
      <path class="cls-1" d="m46.12,121.69c-2.5,2.91-5.44,5.74-8.27,8.7-5.61,5.92-11.65,11.5-17.43,17.76-2.88,3.12-5.7,6.39-8.28,9.91-1.29,1.77-2.51,3.59-3.67,5.49-1.18,2.09-2.18,4.06-3.07,6.11C1.86,177.8-.23,186.66.02,195.76c.16,4.54.91,9.12,2.48,13.48,1.54,4.36,3.89,8.43,6.78,12.03,2.97,3.61,6.73,6.64,10.92,8.72,1.04.52,2.11.99,3.2,1.4,1.14.48,2.37.69,3.52.97,1.17.32,2.34.42,3.5.55,1.16.17,2.33.18,3.49.16.9-.01,1.79-.07,2.68-.16.78,1.57,1.85,3.04,3.25,4.21,1.78,1.56,4.06,2.52,6.41,2.98,1.17.23,2.38.37,3.57.32l1.81-.05,1.79-.26c2.36-.46,4.7-1.25,6.81-2.41,2.12-1.13,4.13-2.48,5.93-4.02.94-.74,1.78-1.57,2.65-2.38.81-.85,1.65-1.69,2.4-2.59.75-.86,1.47-1.75,2.17-2.65-.06,3.02-.38,6.05-.96,9.04-1.18,6.11-3.2,12.12-5.72,17.98-3.61,6.85-8.78,12.88-14.69,18.28-2.98,2.7-6.15,5.24-9.43,7.69-3.29,2.44-6.71,4.74-10.2,7l-.39.25-.32.3c-5.93,5.46-11.21,12.11-14.21,20.2-1.44,4.03-2.36,8.37-2.32,12.74.02,4.36.84,8.69,2.28,12.68l.1.28.07.15c2.06,4.38,5.07,8.2,8.62,11.31.89.78,1.82,1.51,2.78,2.19.48.34.97.67,1.47.99.52.31,1.08.62,1.62.92,2.2,1.17,4.54,2.06,6.95,2.53,2.39.5,4.83.71,7.24.55,2.4-.14,4.79-.55,7.07-1.34,4.59-1.47,8.76-4.36,11.66-8.43,2.68-4,4.17-8.64,4.01-13.48-.22-2.6-.93-4.75-1.91-6.87-1-2.09-2.33-4.02-4.02-5.63-1.68-1.61-3.75-2.89-6.04-3.47-2.28-.61-4.69-.48-6.79.18-4.25,1.15-7.86,4.2-9.54,7.99,2.4-3.4,6.18-5.44,9.99-5.9,1.9-.29,3.76-.07,5.4.64,1.63.71,3.04,1.85,4.17,3.23,1.13,1.39,1.98,3.02,2.55,4.74.56,1.69.87,3.6.8,5.11-.21,3.42-1.71,6.89-3.89,9.51-4.37,4.98-12.26,6.78-18.66,4.87-1.62-.43-3.12-1.15-4.49-2.01l-1.02-.67-1.05-.8c-.69-.55-1.35-1.13-1.99-1.74-2.47-2.37-4.42-5.21-5.76-8.25-.94-3.02-1.38-6.1-1.29-9.14.07-3.11.77-6.18,1.9-9.15,2.33-5.81,6.38-11.17,11.35-15.69,3.49-2.27,6.94-4.65,10.32-7.19,3.53-2.64,6.94-5.49,10.19-8.58,3.23-3.1,6.34-6.39,9.08-10.04.61-.8,1.19-1.62,1.77-2.45.15-.02.3-.05.45-.07,2.48-.33,4.93-.38,7.31-.2,4.76.37,9.22,1.74,13.34,3.8l-.34-.15c4.36,2.74,7.63,7.54,7.95,11.82.12,2.11-.29,4.18-1.46,6.05-.5.93-1.25,1.73-2.03,2.5-.86.7-1.78,1.39-2.85,1.88-1.04.56-2.2.84-3.37,1.14-1.18.19-2.4.31-3.61.19-2.42-.18-4.81-1-6.86-2.65-1.19-1-1.67-1.31-2.06-2.22-.38-.86-.34-2.11.06-3.33.81-2.41,3.14-4.95,6.64-4.63-1.39-.99-3.43-1.28-5.28-.73-1.86.52-3.59,1.66-4.86,3.27-1.27,1.59-2.21,3.7-2.13,6.13.06,1.2.34,2.45.88,3.56.58,1.21,1.17,1.9,1.76,2.71,2.41,3.24,6.18,5.61,10.24,6.6,4.07,1.05,8.44.78,12.43-.71,4.02-1.41,7.68-4.24,10.12-8.02,1.23-1.87,2.07-3.92,2.65-6.12.53-2.2.63-4.5.42-6.72-.28-2.2-.82-4.36-1.73-6.27-.87-1.94-1.95-3.74-3.28-5.3-2.57-3.2-5.87-5.62-9.57-7.27l-.34-.15c-2.77-.88-5.63-1.48-8.53-1.68-2.89-.21-5.8-.05-8.6.52-1.46.29-2.89.7-4.27,1.2.84-1.45,1.63-2.91,2.35-4.43l.13-.27.03-.07c2.47-6.56,4.45-13.45,5.26-20.61.82-7.12.59-14.54-1.38-21.54l-2.69-9.55-3.88,8.77c-1.72,3.89-3.76,7.66-6.22,11.1-2.46,3.42-5.24,6.64-8.64,8.99-3.36,2.36-7.37,3.81-11.56,3.69-2.07-.1-4.14-.62-5.98-1.7-1.39-.8-2.6-1.93-3.63-3.24,8.21-.88,15.84-4.87,21.35-10.7,3.1-3.28,5.55-7.17,7.11-11.38.33-1.08.73-2.12.98-3.23.22-1.12.47-2.22.65-3.36.21-2.42.05-4.64-.41-6.88-.93-4.43-3.05-8.56-6.13-11.81-3.07-3.22-7.14-5.56-11.53-6.21-4.35-.68-8.78.07-12.61,1.89-3.86,1.76-7.15,4.59-9.48,7.99,5.37-6.23,14.07-9.31,21.6-7.44,3.73.88,6.98,3.23,9.36,6.14,2.39,2.92,3.9,6.52,4.39,10.2.25,1.81.22,3.76-.06,5.43-.22.88-.5,1.78-.73,2.66-.27.88-.69,1.75-1.02,2.62-1.51,3.43-3.72,6.52-6.43,9.07-5.41,5.12-12.83,7.99-19.99,7.7-.9-.02-1.79-.05-2.66-.23-.88-.13-1.77-.24-2.58-.51-.83-.25-1.66-.38-2.4-.75-.83-.35-1.63-.75-2.41-1.18-3.12-1.72-5.82-4.1-7.97-6.94-4.34-5.83-6.49-13-6.54-20.39-.03-7.41,1.91-14.92,5.11-21.78.79-1.72,1.71-3.39,2.58-4.87,1.02-1.58,2.14-3.16,3.32-4.69,2.35-3.07,4.91-6.06,7.65-8.96,5.44-5.81,11.56-11.38,17.34-17.37,2.89-2.97,5.92-5.83,8.82-9.14,2.84-3.29,5.54-6.71,7.93-10.35,8.05-12.18,13.55-26.13,15.76-40.52,14.32-2.23,28.19-7.71,40.31-15.73,3.64-2.39,7.06-5.08,10.35-7.93,3.31-2.9,6.17-5.93,9.14-8.82,5.99-5.78,11.56-11.9,17.37-17.34,2.9-2.74,5.88-5.3,8.96-7.65,1.53-1.18,3.11-2.29,4.69-3.32,1.48-.87,3.16-1.79,4.87-2.58,6.85-3.2,14.37-5.14,21.78-5.11,7.39.05,14.56,2.2,20.39,6.54,2.84,2.15,5.21,4.84,6.94,7.97.43.78.83,1.58,1.18,2.41.37.74.5,1.57.75,2.4.28.81.38,1.7.51,2.58.18.88.21,1.77.23,2.66.28,7.16-2.58,14.58-7.7,19.99-2.55,2.71-5.64,4.92-9.07,6.43-.87.33-1.73.75-2.62,1.02-.88.23-1.78.51-2.66.73-1.67.27-3.61.31-5.43.06-3.68-.49-7.28-2-10.2-4.39-2.91-2.38-5.25-5.62-6.14-9.36-1.87-7.53,1.21-16.22,7.44-21.6-3.4,2.33-6.23,5.62-7.99,9.48-1.82,3.83-2.56,8.25-1.89,12.61.65,4.39,2.99,8.46,6.21,11.53,3.24,3.08,7.37,5.21,11.81,6.13,2.24.46,4.46.63,6.88.41,1.13-.18,2.23-.43,3.36-.65,1.11-.25,2.15-.65,3.23-.98,4.22-1.55,8.11-4.01,11.38-7.11,5.83-5.51,9.82-13.14,10.7-21.35,1.32,1.02,2.45,2.23,3.24,3.63,1.08,1.83,1.6,3.91,1.7,5.98.12,4.19-1.33,8.2-3.69,11.56-2.35,3.4-5.57,6.18-8.99,8.64-3.44,2.45-7.21,4.49-11.1,6.22l-8.77,3.88,9.55,2.69c7,1.97,14.41,2.2,21.54,1.38,7.16-.81,14.04-2.79,20.61-5.26l.07-.03.27-.13c1.52-.71,2.99-1.51,4.43-2.35-.5,1.38-.91,2.81-1.2,4.27-.57,2.8-.73,5.71-.52,8.6.2,2.9.8,5.76,1.68,8.53l.15.34c1.64,3.69,4.07,7,7.27,9.57,1.56,1.33,3.37,2.4,5.3,3.28,1.92.91,4.08,1.45,6.27,1.73,2.22.21,4.51.11,6.72-.42,2.19-.58,4.25-1.42,6.12-2.65,3.78-2.45,6.61-6.1,8.02-10.12,1.49-3.99,1.76-8.36.71-12.43-.99-4.06-3.37-7.83-6.6-10.24-.82-.58-1.51-1.17-2.71-1.76-1.11-.54-2.36-.82-3.56-.88-2.43-.08-4.54.86-6.13,2.13-1.61,1.28-2.75,3-3.27,4.86-.55,1.85-.26,3.89.73,5.28-.32-3.5,2.22-5.83,4.63-6.64,1.22-.41,2.47-.44,3.33-.06.92.39,1.22.87,2.22,2.06,1.65,2.05,2.47,4.44,2.65,6.86.11,1.21,0,2.43-.19,3.61-.3,1.17-.58,2.34-1.14,3.37-.49,1.07-1.19,1.99-1.88,2.85-.77.79-1.57,1.54-2.5,2.03-1.87,1.17-3.94,1.58-6.05,1.46-4.28-.32-9.08-3.59-11.82-7.95l.15.34c-2.06-4.12-3.44-8.58-3.8-13.34-.18-2.38-.13-4.82.2-7.31.02-.15.05-.3.07-.45.83-.58,1.65-1.16,2.45-1.77,3.64-2.74,6.94-5.85,10.04-9.08,3.08-3.25,5.93-6.66,8.58-10.19,2.53-3.38,4.92-6.83,7.19-10.32,4.52-4.97,9.89-9.02,15.69-11.35,2.97-1.13,6.04-1.83,9.15-1.9,3.04-.09,6.12.35,9.14,1.29,3.03,1.34,5.87,3.29,8.25,5.76.61.63,1.19,1.3,1.74,1.99l.8,1.05.67,1.02c.86,1.37,1.58,2.87,2.01,4.49,1.91,6.4.11,14.3-4.87,18.66-2.62,2.18-6.09,3.68-9.51,3.89-1.51.07-3.43-.24-5.11-.8-1.71-.57-3.35-1.42-4.74-2.55-1.39-1.13-2.52-2.54-3.23-4.17-.71-1.64-.93-3.5-.64-5.4.47-3.81,2.51-7.59,5.91-9.99-3.79,1.68-6.84,5.29-7.99,9.54-.65,2.1-.78,4.52-.17,6.8.58,2.29,1.86,4.37,3.47,6.04,1.61,1.69,3.55,3.02,5.63,4.02,2.12.98,4.27,1.69,6.87,1.91,4.84.16,9.47-1.33,13.48-4.01,4.07-2.9,6.96-7.07,8.43-11.66.79-2.28,1.19-4.67,1.34-7.07.17-2.41-.05-4.84-.55-7.24-.47-2.4-1.36-4.74-2.53-6.95-.3-.54-.61-1.11-.92-1.62-.31-.5-.65-.99-.99-1.47-.68-.96-1.42-1.89-2.19-2.78-3.11-3.55-6.93-6.56-11.31-8.62l-.15-.07-.28-.1c-3.99-1.44-8.32-2.26-12.68-2.28-4.37-.04-8.71.88-12.74,2.32-8.09,2.99-14.74,8.28-20.2,14.21l-.3.32-.25.39c-2.26,3.49-4.56,6.91-7,10.2-2.45,3.28-4.99,6.45-7.69,9.43-5.4,5.9-11.43,11.08-18.28,14.69-5.86,2.52-11.87,4.54-17.98,5.72-3,.58-6.02.9-9.04.96.9-.7,1.79-1.42,2.65-2.17.9-.75,1.74-1.6,2.59-2.4.81-.88,1.64-1.71,2.38-2.65,1.54-1.81,2.89-3.81,4.02-5.93,1.16-2.1,1.95-4.44,2.41-6.81l.26-1.79.05-1.81c.05-1.2-.1-2.4-.32-3.57-.47-2.34-1.42-4.63-2.98-6.41-1.18-1.4-2.64-2.48-4.21-3.25.09-.89.15-1.78.16-2.68.02-1.17.02-2.33-.16-3.49-.12-1.16-.23-2.33-.55-3.5-.28-1.15-.49-2.37-.97-3.52-.41-1.08-.88-2.15-1.4-3.2-2.08-4.19-5.11-7.95-8.72-10.92-3.6-2.89-7.67-5.24-12.03-6.78-4.36-1.56-8.94-2.32-13.48-2.48-9.1-.25-17.96,1.84-26.1,5.38-2.04.89-4.02,1.88-6.11,3.07-1.91,1.16-3.72,2.38-5.49,3.67-3.52,2.59-6.79,5.4-9.91,8.29-6.26,5.78-11.84,11.82-17.76,17.43-2.96,2.83-5.79,5.77-8.7,8.27-2.97,2.52-6.05,4.89-9.27,7.07-10.02,6.73-21.37,11.55-33.25,13.9.21-3.43.37-6.84.13-10.41-.25-4.41-.89-8.82-1.98-13.15-2.13-8.64-6.32-17.08-12.8-23.64-3.23-3.24-6.98-6.03-11-8.08-4.05-2.19-8.73-3.58-13.41-3.93-4.71-.3-9.51.39-13.86,2.23-2.51.99-4.82,2.39-6.91,4.06-.21.12-.43.23-.63.36l-.15.1-.23.2c-3.5,3.03-6.49,6.85-8.22,11.25-1.84,4.36-2.53,9.15-2.23,13.86.35,4.69,1.74,9.36,3.93,13.41,2.05,4.02,4.84,7.77,8.08,11,6.56,6.48,15,10.67,23.64,12.8,4.33,1.09,8.74,1.72,13.15,1.98,3.64.24,7.12.07,10.63-.15-2.33,11.95-7.16,23.37-13.93,33.44-2.18,3.22-4.56,6.3-7.07,9.27Zm10.81-52.63c-3.82-.12-7.61-.57-11.29-1.4-6.8-1.49-13.19-4.42-18.32-8.79,0,0-16.22-15.92-10.86-28.08.2-.83.46-1.65.75-2.45.84-2.16,2.01-4.2,3.47-6.04,3.63-3.5,8.29-5.73,13.19-6.34.15-.01.31-.03.46-.04.38-.04.76-.05,1.15-.07,1.1-.06,2.19-.01,3.25.1.32.02.64.04.96.07.11.02.22.04.33.06.16.04.33.1.49.14,8.14,1.59,14.78,7.65,18.27,11.47-.03-.14-.06-.29-.1-.43.92,1.07,1.77,2.2,2.56,3.37.13.17.2.27.2.27h-.01c2.97,4.44,5.06,9.53,6.23,14.9.83,3.68,1.28,7.47,1.4,11.29.17,3.69-.23,7.59-.54,11.4-3.87.31-7.85.73-11.6.55Z"/>
      <g>
        <polygon class="cls-1" points="363.26 37.13 634.79 43.68 363.26 50.22 363.26 37.13"/>
        <polygon class="cls-1" points="50.14 363.35 43.59 634.88 37.04 363.35 50.14 363.35"/>
      </g>
    </g>
  </g>
</svg>