<?xml version="1.0" encoding="UTF-8"?>
<svg id="Capa_2" data-name="Capa 2" xmlns="http://www.w3.org/2000/svg" viewBox="0 0 634.79 634.88">
  <defs>
    <style>
      .cls-1 {
        fill: #efb810;
        stroke-width: 0px;
      }
    </style>
  </defs>
  <g id="Layer_1" data-name="Layer 1">
    <g>
      <path class="cls-1" d="m581.59,112.42c-6.77-10.07-11.6-21.49-13.93-33.44,3.5.22,6.99.38,10.63.15,4.41-.25,8.82-.89,13.15-1.98,8.64-2.13,17.08-6.32,23.64-12.8,3.24-3.23,6.03-6.98,8.08-11,2.19-4.05,3.58-8.73,3.93-13.41.3-4.71-.39-9.5-2.23-13.86-1.74-4.4-4.72-8.22-8.22-11.25l-.23-.2-.15-.1c-.2-.13-.42-.24-.63-.36-2.09-1.67-4.41-3.07-6.91-4.06-4.36-1.84-9.15-2.53-13.86-2.23-4.69.35-9.36,1.74-13.41,3.93-4.02,2.05-7.77,4.84-11,8.08-6.48,6.56-10.67,15-12.8,23.64-1.09,4.33-1.72,8.74-1.98,13.15-.23,3.57-.08,6.98.13,10.41-11.88-2.35-23.23-7.16-33.25-13.9-3.22-2.18-6.3-4.56-9.27-7.07-2.91-2.5-5.74-5.44-8.7-8.27-5.92-5.61-11.5-11.65-17.76-17.43-3.12-2.88-6.39-5.7-9.91-8.29-1.77-1.29-3.59-2.51-5.49-3.67-2.09-1.18-4.07-2.18-6.11-3.07C457.16,1.86,448.3-.23,439.2.02c-4.54.16-9.12.91-13.48,2.48-4.36,1.54-8.43,3.89-12.04,6.78-3.61,2.97-6.64,6.73-8.72,10.92-.52,1.04-.99,2.11-1.4,3.2-.48,1.14-.69,2.37-.97,3.52-.32,1.17-.42,2.34-.55,3.5-.17,1.16-.18,2.33-.16,3.49.01.9.07,1.79.16,2.68-1.57.78-3.04,1.85-4.21,3.25-1.56,1.78-2.52,4.06-2.98,6.41-.23,1.17-.37,2.38-.32,3.57l.05,1.81.26,1.79c.46,2.37,1.25,4.7,2.41,6.81,1.13,2.12,2.48,4.13,4.02,5.93.74.94,1.57,1.77,2.38,2.65.85.81,1.69,1.65,2.59,2.4.86.75,1.75,1.48,2.65,2.17-3.02-.06-6.05-.38-9.04-.96-6.11-1.18-12.12-3.2-17.98-5.72-6.85-3.61-12.88-8.78-18.28-14.69-2.7-2.98-5.24-6.15-7.69-9.43-2.44-3.29-4.75-6.71-7-10.2l-.25-.39-.3-.32c-5.46-5.93-12.11-11.21-20.2-14.21-4.03-1.44-8.37-2.36-12.74-2.32-4.36.02-8.69.84-12.68,2.28l-.28.1-.15.07c-4.38,2.06-8.2,5.07-11.31,8.62-.78.89-1.51,1.82-2.19,2.78-.34.48-.67.97-.99,1.47-.31.52-.62,1.08-.92,1.62-1.17,2.2-2.06,4.54-2.53,6.95-.5,2.39-.71,4.83-.55,7.24.14,2.4.55,4.79,1.34,7.07,1.47,4.59,4.36,8.76,8.43,11.66,4,2.68,8.64,4.17,13.48,4.01,2.6-.22,4.75-.93,6.87-1.91,2.09-1,4.02-2.33,5.63-4.02,1.61-1.68,2.89-3.75,3.47-6.04.61-2.28.48-4.69-.18-6.8-1.15-4.25-4.2-7.86-7.99-9.54,3.4,2.4,5.44,6.18,5.91,9.99.29,1.9.07,3.76-.64,5.4-.71,1.63-1.85,3.04-3.23,4.17-1.39,1.13-3.02,1.98-4.74,2.55-1.69.56-3.6.87-5.11.8-3.42-.21-6.89-1.71-9.51-3.89-4.98-4.37-6.78-12.26-4.87-18.66.43-1.62,1.15-3.12,2.01-4.49l.67-1.02.8-1.05c.55-.69,1.13-1.35,1.74-1.99,2.37-2.47,5.21-4.42,8.25-5.76,3.02-.94,6.1-1.38,9.14-1.29,3.11.07,6.18.77,9.15,1.9,5.81,2.33,11.17,6.38,15.69,11.35,2.27,3.49,4.65,6.94,7.19,10.32,2.64,3.53,5.49,6.94,8.58,10.19,3.1,3.23,6.39,6.34,10.04,9.08.8.61,1.62,1.19,2.45,1.77.02.15.05.3.07.45.33,2.48.38,4.93.2,7.31-.37,4.76-1.74,9.22-3.8,13.34l.15-.34c-2.74,4.36-7.54,7.62-11.82,7.95-2.11.12-4.18-.29-6.05-1.46-.93-.5-1.73-1.25-2.5-2.03-.7-.86-1.39-1.78-1.88-2.85-.56-1.04-.84-2.2-1.14-3.37-.19-1.18-.31-2.4-.19-3.61.18-2.42,1-4.81,2.65-6.86,1-1.19,1.31-1.67,2.22-2.06.86-.38,2.11-.34,3.33.06,2.41.81,4.95,3.14,4.63,6.64.99-1.39,1.28-3.43.73-5.28-.52-1.86-1.66-3.59-3.27-4.86-1.59-1.27-3.7-2.21-6.13-2.13-1.2.06-2.45.34-3.56.88-1.21.58-1.9,1.17-2.71,1.76-3.24,2.41-5.61,6.18-6.6,10.24-1.05,4.07-.78,8.44.71,12.43,1.41,4.02,4.24,7.68,8.02,10.12,1.87,1.23,3.92,2.07,6.12,2.65,2.2.53,4.5.63,6.72.42,2.2-.28,4.36-.82,6.27-1.73,1.94-.87,3.74-1.95,5.3-3.28,3.2-2.57,5.62-5.87,7.27-9.57l.15-.34c.88-2.77,1.48-5.63,1.68-8.53.21-2.89.05-5.8-.52-8.6-.29-1.46-.7-2.89-1.2-4.27,1.45.84,2.91,1.63,4.43,2.35l.27.13.07.03c6.56,2.47,13.45,4.45,20.61,5.26,7.12.82,14.54.59,21.54-1.38l9.55-2.69-8.77-3.88c-3.89-1.72-7.66-3.76-11.1-6.22-3.42-2.46-6.64-5.24-8.99-8.64-2.36-3.36-3.81-7.37-3.69-11.56.1-2.07.62-4.14,1.7-5.98.8-1.39,1.93-2.6,3.24-3.63.88,8.21,4.87,15.84,10.7,21.35,3.28,3.1,7.17,5.55,11.38,7.11,1.08.33,2.12.73,3.23.98,1.12.22,2.22.47,3.36.65,2.42.21,4.64.05,6.88-.41,4.43-.93,8.56-3.05,11.81-6.13,3.22-3.07,5.56-7.14,6.21-11.53.68-4.35-.07-8.78-1.89-12.61-1.76-3.86-4.59-7.15-7.99-9.48,6.23,5.37,9.31,14.07,7.44,21.6-.88,3.73-3.23,6.98-6.14,9.36-2.92,2.39-6.52,3.9-10.2,4.39-1.81.25-3.76.22-5.43-.06-.88-.22-1.78-.5-2.66-.73-.88-.27-1.75-.69-2.62-1.02-3.43-1.51-6.52-3.72-9.07-6.43-5.12-5.41-7.99-12.83-7.7-19.99.02-.9.05-1.79.23-2.66.13-.88.24-1.77.51-2.58.25-.84.38-1.66.75-2.4.35-.83.75-1.63,1.18-2.41,1.72-3.12,4.1-5.82,6.94-7.97,5.83-4.34,13-6.49,20.39-6.54,7.41-.03,14.93,1.91,21.78,5.11,1.72.79,3.39,1.71,4.87,2.58,1.58,1.02,3.16,2.14,4.69,3.32,3.07,2.35,6.06,4.91,8.96,7.65,5.81,5.44,11.38,11.56,17.37,17.34,2.97,2.89,5.83,5.92,9.14,8.82,3.29,2.84,6.71,5.54,10.35,7.93,12.12,8.01,25.99,13.5,40.31,15.73,2.21,14.4,7.71,28.34,15.76,40.52,2.39,3.64,5.08,7.06,7.93,10.35,2.9,3.31,5.93,6.17,8.82,9.14,5.78,5.99,11.9,11.56,17.34,17.37,2.74,2.9,5.3,5.88,7.65,8.96,1.18,1.53,2.29,3.11,3.32,4.69.87,1.48,1.79,3.16,2.58,4.87,3.2,6.85,5.14,14.37,5.11,21.78-.05,7.39-2.2,14.56-6.54,20.39-2.15,2.84-4.84,5.21-7.97,6.94-.78.43-1.58.83-2.41,1.18-.74.37-1.57.5-2.4.75-.81.28-1.7.38-2.58.51-.88.18-1.77.21-2.66.23-7.16.28-14.58-2.58-19.99-7.7-2.71-2.55-4.92-5.64-6.43-9.07-.33-.87-.75-1.73-1.02-2.62-.23-.88-.51-1.78-.73-2.66-.27-1.67-.31-3.61-.06-5.43.49-3.68,2-7.28,4.39-10.2,2.38-2.91,5.62-5.25,9.36-6.14,7.53-1.87,16.22,1.21,21.6,7.44-2.33-3.4-5.62-6.23-9.48-7.99-3.83-1.82-8.25-2.56-12.61-1.89-4.39.65-8.47,2.99-11.53,6.21-3.08,3.24-5.21,7.37-6.13,11.81-.46,2.24-.62,4.46-.41,6.88.18,1.13.42,2.23.65,3.36.25,1.11.65,2.15.98,3.23,1.55,4.22,4.01,8.11,7.11,11.38,5.51,5.84,13.14,9.82,21.35,10.7-1.02,1.32-2.23,2.45-3.63,3.24-1.83,1.08-3.91,1.6-5.98,1.7-4.19.12-8.2-1.33-11.56-3.69-3.4-2.35-6.18-5.57-8.64-8.99-2.46-3.44-4.49-7.21-6.22-11.1l-3.88-8.77-2.69,9.55c-1.97,7-2.2,14.41-1.38,21.54.81,7.16,2.79,14.04,5.26,20.61l.03.07.13.27c.71,1.52,1.51,2.99,2.35,4.43-1.38-.5-2.81-.91-4.27-1.2-2.8-.57-5.71-.73-8.6-.52-2.9.2-5.76.8-8.53,1.68l-.34.15c-3.69,1.64-7,4.07-9.57,7.27-1.33,1.56-2.4,3.37-3.28,5.3-.92,1.92-1.45,4.08-1.73,6.27-.21,2.22-.11,4.51.42,6.72.58,2.19,1.42,4.25,2.65,6.12,2.45,3.78,6.1,6.61,10.12,8.02,3.99,1.49,8.36,1.76,12.43.71,4.06-.99,7.83-3.37,10.24-6.6.58-.82,1.18-1.51,1.76-2.71.54-1.11.82-2.36.88-3.56.08-2.43-.86-4.54-2.13-6.13-1.28-1.61-3-2.75-4.86-3.27-1.85-.55-3.89-.26-5.28.73,3.5-.32,5.83,2.22,6.64,4.63.41,1.22.44,2.47.06,3.33-.39.92-.87,1.22-2.06,2.22-2.05,1.65-4.44,2.47-6.86,2.65-1.21.11-2.43,0-3.61-.19-1.17-.3-2.34-.58-3.37-1.14-1.07-.49-1.99-1.19-2.85-1.88-.79-.77-1.54-1.57-2.03-2.5-1.17-1.87-1.58-3.94-1.46-6.05.32-4.28,3.59-9.08,7.95-11.82l-.34.15c4.12-2.06,8.58-3.44,13.34-3.8,2.38-.18,4.82-.13,7.31.2.15.02.3.05.45.07.58.83,1.16,1.65,1.77,2.45,2.74,3.64,5.85,6.94,9.08,10.04,3.25,3.08,6.66,5.93,10.19,8.58,3.38,2.53,6.83,4.92,10.32,7.19,4.97,4.52,9.02,9.89,11.35,15.69,1.13,2.97,1.83,6.04,1.9,9.15.09,3.04-.35,6.12-1.29,9.14-1.34,3.03-3.29,5.87-5.76,8.25-.63.61-1.3,1.19-1.99,1.74l-1.05.8-1.02.67c-1.37.86-2.87,1.58-4.49,2.01-6.4,1.91-14.3.11-18.66-4.87-2.18-2.62-3.68-6.09-3.89-9.51-.07-1.51.24-3.43.8-5.11.57-1.71,1.42-3.35,2.55-4.74,1.13-1.39,2.54-2.52,4.17-3.23,1.64-.71,3.5-.93,5.4-.64,3.81.47,7.59,2.51,9.99,5.9-1.68-3.79-5.29-6.84-9.54-7.99-2.1-.65-4.52-.78-6.79-.18-2.29.58-4.37,1.86-6.04,3.47-1.69,1.61-3.02,3.55-4.02,5.63-.98,2.12-1.69,4.27-1.91,6.87-.16,4.84,1.33,9.47,4.01,13.48,2.9,4.07,7.07,6.96,11.66,8.43,2.28.79,4.67,1.19,7.07,1.34,2.41.17,4.84-.05,7.24-.55,2.4-.47,4.74-1.36,6.95-2.53.54-.3,1.11-.61,1.62-.92.5-.31.99-.65,1.47-.99.96-.68,1.88-1.42,2.78-2.19,3.55-3.11,6.56-6.93,8.62-11.31l.07-.15.1-.28c1.44-3.99,2.26-8.32,2.28-12.68.04-4.37-.88-8.71-2.32-12.74-2.99-8.09-8.28-14.74-14.21-20.2l-.32-.3-.39-.25c-3.49-2.26-6.91-4.56-10.2-7-3.28-2.45-6.45-4.99-9.43-7.69-5.9-5.4-11.08-11.43-14.69-18.28-2.52-5.86-4.54-11.87-5.72-17.98-.58-3-.9-6.02-.96-9.04.7.9,1.42,1.79,2.17,2.65.75.9,1.6,1.74,2.4,2.59.88.81,1.71,1.64,2.65,2.38,1.81,1.54,3.81,2.89,5.93,4.02,2.1,1.16,4.44,1.95,6.81,2.41l1.79.26,1.81.05c1.2.05,2.4-.1,3.57-.32,2.34-.47,4.63-1.43,6.41-2.98,1.4-1.18,2.48-2.64,3.25-4.21.89.09,1.78.15,2.68.16,1.17.02,2.33.02,3.49-.16,1.16-.12,2.32-.23,3.5-.55,1.15-.28,2.37-.49,3.52-.97,1.08-.41,2.15-.88,3.2-1.4,4.19-2.08,7.95-5.11,10.92-8.72,2.89-3.6,5.24-7.67,6.78-12.03,1.56-4.36,2.32-8.94,2.48-13.48.25-9.1-1.84-17.96-5.38-26.1-.89-2.04-1.88-4.02-3.07-6.11-1.16-1.91-2.38-3.72-3.67-5.49-2.59-3.52-5.4-6.79-8.28-9.91-5.78-6.26-11.82-11.84-17.43-17.76-2.83-2.96-5.77-5.79-8.27-8.7-2.52-2.97-4.89-6.05-7.07-9.27Zm-15.33-43.91c-.31-3.81-.71-7.71-.54-11.4.12-3.82.57-7.61,1.4-11.29,1.18-5.37,3.26-10.47,6.23-14.9h-.01s.07-.1.2-.27c.8-1.17,1.64-2.3,2.56-3.37-.04.14-.07.29-.1.43,3.49-3.82,10.13-9.88,18.27-11.47.16-.04.33-.1.49-.14.11-.02.22-.04.33-.06.32-.03.64-.05.96-.07,1.06-.12,2.14-.16,3.25-.1.38.02.76.03,1.15.07.15.01.31.02.46.04,4.9.61,9.56,2.84,13.19,6.34,1.46,1.84,2.63,3.88,3.47,6.04.29.8.55,1.61.75,2.45,5.36,12.16-10.86,28.08-10.86,28.08-5.13,4.37-11.52,7.3-18.32,8.79-3.68.83-7.47,1.28-11.29,1.4-3.75.17-7.73-.24-11.6-.55Z"/>
      <g>
        <polygon class="cls-1" points="271.53 37.13 0 43.68 271.53 50.22 271.53 37.13"/>
        <polygon class="cls-1" points="584.65 363.35 591.2 634.88 597.75 363.35 584.65 363.35"/>
      </g>
    </g>
  </g>
</svg>